<svg width="199" height="40" viewBox="0 0 199 40" fill="none" xmlns="http://www.w3.org/2000/svg">
<path fill-rule="evenodd" clip-rule="evenodd" d="M7.5 10C7.5 8.61929 8.61929 7.5 10 7.5H13.75C15.1307 7.5 16.25 8.61929 16.25 10V30C16.25 31.3807 15.1307 32.5 13.75 32.5H10C8.61929 32.5 7.5 31.3807 7.5 30V10ZM13.75 10H10V30H13.75V10Z" fill="#00B37E"/>
<path fill-rule="evenodd" clip-rule="evenodd" d="M23.75 10C23.75 8.61929 24.8693 7.5 26.25 7.5H30C31.3807 7.5 32.5 8.61929 32.5 10V30C32.5 31.3807 31.3807 32.5 30 32.5H26.25C24.8693 32.5 23.75 31.3807 23.75 30V10ZM30 10H26.25V30H30V10Z" fill="#00B37E"/>
<path fill-rule="evenodd" clip-rule="evenodd" d="M30 12.5C30 11.8096 30.5596 11.25 31.25 11.25H35C35.663 11.25 36.2989 11.5134 36.7678 11.9822C37.2366 12.4511 37.5 13.087 37.5 13.75V26.25C37.5 26.913 37.2366 27.5489 36.7678 28.0178C36.2989 28.4866 35.663 28.75 35 28.75H31.25C30.5596 28.75 30 28.1904 30 27.5C30 26.8096 30.5596 26.25 31.25 26.25H35L35 13.75L31.25 13.75C30.5596 13.75 30 13.1904 30 12.5Z" fill="#00B37E"/>
<path fill-rule="evenodd" clip-rule="evenodd" d="M3.23223 11.9822C3.70107 11.5134 4.33696 11.25 5 11.25H8.75C9.44036 11.25 10 11.8096 10 12.5C10 13.1904 9.44036 13.75 8.75 13.75L5 13.75V26.25H8.75C9.44036 26.25 10 26.8096 10 27.5C10 28.1904 9.44036 28.75 8.75 28.75H5C4.33696 28.75 3.70108 28.4866 3.23223 28.0178C2.76339 27.5489 2.5 26.913 2.5 26.25V13.75C2.5 13.087 2.76339 12.4511 3.23223 11.9822Z" fill="#00B37E"/>
<path fill-rule="evenodd" clip-rule="evenodd" d="M13.75 20C13.75 19.3096 14.3096 18.75 15 18.75H25C25.6904 18.75 26.25 19.3096 26.25 20C26.25 20.6904 25.6904 21.25 25 21.25H15C14.3096 21.25 13.75 20.6904 13.75 20Z" fill="#00B37E"/>
<path fill-rule="evenodd" clip-rule="evenodd" d="M35 20C35 19.3096 35.5596 18.75 36.25 18.75H38.75C39.4404 18.75 40 19.3096 40 20C40 20.6904 39.4404 21.25 38.75 21.25H36.25C35.5596 21.25 35 20.6904 35 20Z" fill="#00B37E"/>
<path fill-rule="evenodd" clip-rule="evenodd" d="M0 20C0 19.3096 0.559644 18.75 1.25 18.75H3.75C4.44036 18.75 5 19.3096 5 20C5 20.6904 4.44036 21.25 3.75 21.25H1.25C0.559644 21.25 0 20.6904 0 20Z" fill="#00B37E"/>
<path d="M58.0293 9.59375V29.5H53.9277V9.59375H58.0293ZM65.959 18.0977V21.2969H56.9082V18.0977H65.959ZM66.916 9.59375V12.8066H56.9082V9.59375H66.916ZM73.2051 14.707V29.5H69.2539V14.707H73.2051ZM69.0078 10.8516C69.0078 10.2773 69.2083 9.80339 69.6094 9.42969C70.0104 9.05599 70.5482 8.86914 71.2227 8.86914C71.888 8.86914 72.4212 9.05599 72.8223 9.42969C73.2324 9.80339 73.4375 10.2773 73.4375 10.8516C73.4375 11.4258 73.2324 11.8997 72.8223 12.2734C72.4212 12.6471 71.888 12.834 71.2227 12.834C70.5482 12.834 70.0104 12.6471 69.6094 12.2734C69.2083 11.8997 69.0078 11.4258 69.0078 10.8516ZM83.7051 14.707V17.4961H75.0918V14.707H83.7051ZM77.2246 11.0566H81.1621V25.043C81.1621 25.4714 81.2168 25.7995 81.3262 26.0273C81.4447 26.2552 81.6178 26.4147 81.8457 26.5059C82.0736 26.5879 82.3607 26.6289 82.707 26.6289C82.9531 26.6289 83.1719 26.6198 83.3633 26.6016C83.5638 26.5742 83.7324 26.5469 83.8691 26.5195L83.8828 29.418C83.5456 29.5273 83.181 29.6139 82.7891 29.6777C82.3971 29.7415 81.9642 29.7734 81.4902 29.7734C80.6243 29.7734 79.8678 29.6322 79.2207 29.3496C78.5827 29.0579 78.0905 28.5931 77.7441 27.9551C77.3978 27.3171 77.2246 26.4785 77.2246 25.4395V11.0566ZM95.0938 9.59375V29.5H91.0059V9.59375H95.0938ZM101.219 9.59375V12.8066H84.9766V9.59375H101.219ZM106.291 17.9336V29.5H102.354V14.707H106.059L106.291 17.9336ZM110.748 14.6113L110.68 18.2617C110.488 18.2344 110.256 18.2116 109.982 18.1934C109.718 18.166 109.477 18.1523 109.258 18.1523C108.702 18.1523 108.219 18.2253 107.809 18.3711C107.408 18.5078 107.07 18.7129 106.797 18.9863C106.533 19.2598 106.332 19.5924 106.195 19.9844C106.068 20.3763 105.995 20.8229 105.977 21.3242L105.184 21.0781C105.184 20.1211 105.279 19.2415 105.471 18.4395C105.662 17.6283 105.94 16.9219 106.305 16.3203C106.678 15.7188 107.134 15.2539 107.672 14.9258C108.21 14.5977 108.825 14.4336 109.518 14.4336C109.736 14.4336 109.96 14.4518 110.188 14.4883C110.415 14.5156 110.602 14.5566 110.748 14.6113ZM120.127 26.1641V19.5742C120.127 19.1003 120.049 18.6947 119.895 18.3574C119.74 18.0111 119.498 17.7422 119.17 17.5508C118.851 17.3594 118.436 17.2637 117.926 17.2637C117.488 17.2637 117.11 17.3411 116.791 17.4961C116.472 17.6419 116.226 17.8561 116.053 18.1387C115.88 18.4121 115.793 18.7357 115.793 19.1094H111.855C111.855 18.4805 112.001 17.8835 112.293 17.3184C112.585 16.7533 113.008 16.2565 113.564 15.8281C114.12 15.3906 114.781 15.0488 115.547 14.8027C116.322 14.5566 117.188 14.4336 118.145 14.4336C119.293 14.4336 120.314 14.625 121.207 15.0078C122.1 15.3906 122.802 15.9648 123.312 16.7305C123.832 17.4961 124.092 18.4531 124.092 19.6016V25.9316C124.092 26.7428 124.142 27.4082 124.242 27.9277C124.342 28.4382 124.488 28.8848 124.68 29.2676V29.5H120.701C120.51 29.099 120.364 28.5977 120.264 27.9961C120.173 27.3854 120.127 26.7747 120.127 26.1641ZM120.646 20.4902L120.674 22.7188H118.473C117.953 22.7188 117.502 22.778 117.119 22.8965C116.736 23.015 116.422 23.1836 116.176 23.4023C115.93 23.612 115.747 23.8581 115.629 24.1406C115.52 24.4232 115.465 24.7331 115.465 25.0703C115.465 25.4076 115.542 25.7129 115.697 25.9863C115.852 26.2507 116.076 26.4603 116.367 26.6152C116.659 26.7611 117.001 26.834 117.393 26.834C117.985 26.834 118.5 26.7155 118.938 26.4785C119.375 26.2415 119.712 25.9499 119.949 25.6035C120.195 25.2572 120.323 24.929 120.332 24.6191L121.371 26.2871C121.225 26.6608 121.025 27.0482 120.77 27.4492C120.523 27.8503 120.209 28.2285 119.826 28.584C119.443 28.9303 118.983 29.2174 118.445 29.4453C117.908 29.6641 117.27 29.7734 116.531 29.7734C115.592 29.7734 114.74 29.5866 113.975 29.2129C113.218 28.8301 112.617 28.306 112.17 27.6406C111.732 26.9661 111.514 26.2005 111.514 25.3438C111.514 24.569 111.66 23.8809 111.951 23.2793C112.243 22.6777 112.671 22.1719 113.236 21.7617C113.811 21.3424 114.526 21.028 115.383 20.8184C116.24 20.5996 117.233 20.4902 118.363 20.4902H120.646ZM133.238 26.6973C133.721 26.6973 134.15 26.6061 134.523 26.4238C134.897 26.2324 135.189 25.9681 135.398 25.6309C135.617 25.2845 135.731 24.8789 135.74 24.4141H139.445C139.436 25.4531 139.158 26.3783 138.611 27.1895C138.064 27.9915 137.331 28.625 136.41 29.0898C135.49 29.5456 134.46 29.7734 133.32 29.7734C132.172 29.7734 131.169 29.582 130.312 29.1992C129.465 28.8164 128.758 28.2878 128.193 27.6133C127.628 26.9297 127.204 26.1367 126.922 25.2344C126.639 24.3229 126.498 23.3477 126.498 22.3086V21.9121C126.498 20.8639 126.639 19.8887 126.922 18.9863C127.204 18.0749 127.628 17.2819 128.193 16.6074C128.758 15.9238 129.465 15.3906 130.312 15.0078C131.16 14.625 132.154 14.4336 133.293 14.4336C134.505 14.4336 135.567 14.666 136.479 15.1309C137.399 15.5957 138.119 16.2611 138.639 17.127C139.167 17.9837 139.436 19 139.445 20.1758H135.74C135.731 19.6836 135.626 19.237 135.426 18.8359C135.234 18.4349 134.952 18.1159 134.578 17.8789C134.214 17.6328 133.762 17.5098 133.225 17.5098C132.65 17.5098 132.181 17.6328 131.816 17.8789C131.452 18.1159 131.169 18.444 130.969 18.8633C130.768 19.2734 130.627 19.7428 130.545 20.2715C130.472 20.791 130.436 21.3379 130.436 21.9121V22.3086C130.436 22.8828 130.472 23.4342 130.545 23.9629C130.618 24.4915 130.755 24.9609 130.955 25.3711C131.165 25.7812 131.452 26.1048 131.816 26.3418C132.181 26.5788 132.655 26.6973 133.238 26.6973ZM145.666 8.48633V29.5H141.729V8.48633H145.666ZM154.99 14.707L148.564 22.0352L145.119 25.5215L143.684 22.6777L146.418 19.2051L150.26 14.707H154.99ZM150.902 29.5L146.527 22.6641L149.248 20.2852L155.441 29.5H150.902ZM164.684 22.4043H159.611V19.2051H164.684C165.467 19.2051 166.105 19.0775 166.598 18.8223C167.09 18.5579 167.45 18.1934 167.678 17.7285C167.906 17.2637 168.02 16.7396 168.02 16.1562C168.02 15.5638 167.906 15.0124 167.678 14.502C167.45 13.9915 167.09 13.5814 166.598 13.2715C166.105 12.9616 165.467 12.8066 164.684 12.8066H161.033V29.5H156.932V9.59375H164.684C166.242 9.59375 167.577 9.8763 168.689 10.4414C169.811 10.9974 170.667 11.7676 171.26 12.752C171.852 13.7363 172.148 14.862 172.148 16.1289C172.148 17.4141 171.852 18.526 171.26 19.4648C170.667 20.4036 169.811 21.1283 168.689 21.6387C167.577 22.1491 166.242 22.4043 164.684 22.4043ZM178.67 17.9336V29.5H174.732V14.707H178.438L178.67 17.9336ZM183.127 14.6113L183.059 18.2617C182.867 18.2344 182.635 18.2116 182.361 18.1934C182.097 18.166 181.855 18.1523 181.637 18.1523C181.081 18.1523 180.598 18.2253 180.188 18.3711C179.786 18.5078 179.449 18.7129 179.176 18.9863C178.911 19.2598 178.711 19.5924 178.574 19.9844C178.447 20.3763 178.374 20.8229 178.355 21.3242L177.562 21.0781C177.562 20.1211 177.658 19.2415 177.85 18.4395C178.041 17.6283 178.319 16.9219 178.684 16.3203C179.057 15.7188 179.513 15.2539 180.051 14.9258C180.589 14.5977 181.204 14.4336 181.896 14.4336C182.115 14.4336 182.339 14.4518 182.566 14.4883C182.794 14.5156 182.981 14.5566 183.127 14.6113ZM183.947 22.2539V21.9668C183.947 20.8822 184.102 19.8841 184.412 18.9727C184.722 18.0521 185.173 17.2546 185.766 16.5801C186.358 15.9056 187.087 15.3815 187.953 15.0078C188.819 14.625 189.812 14.4336 190.934 14.4336C192.055 14.4336 193.053 14.625 193.928 15.0078C194.803 15.3815 195.536 15.9056 196.129 16.5801C196.73 17.2546 197.186 18.0521 197.496 18.9727C197.806 19.8841 197.961 20.8822 197.961 21.9668V22.2539C197.961 23.3294 197.806 24.3275 197.496 25.248C197.186 26.1595 196.73 26.957 196.129 27.6406C195.536 28.3151 194.807 28.8392 193.941 29.2129C193.076 29.5866 192.082 29.7734 190.961 29.7734C189.84 29.7734 188.842 29.5866 187.967 29.2129C187.101 28.8392 186.367 28.3151 185.766 27.6406C185.173 26.957 184.722 26.1595 184.412 25.248C184.102 24.3275 183.947 23.3294 183.947 22.2539ZM187.885 21.9668V22.2539C187.885 22.8737 187.939 23.4525 188.049 23.9902C188.158 24.528 188.331 25.002 188.568 25.4121C188.814 25.8132 189.133 26.1276 189.525 26.3555C189.917 26.5833 190.396 26.6973 190.961 26.6973C191.508 26.6973 191.977 26.5833 192.369 26.3555C192.761 26.1276 193.076 25.8132 193.312 25.4121C193.549 25.002 193.723 24.528 193.832 23.9902C193.951 23.4525 194.01 22.8737 194.01 22.2539V21.9668C194.01 21.3652 193.951 20.8001 193.832 20.2715C193.723 19.7337 193.545 19.2598 193.299 18.8496C193.062 18.4303 192.747 18.1022 192.355 17.8652C191.964 17.6283 191.49 17.5098 190.934 17.5098C190.378 17.5098 189.904 17.6283 189.512 17.8652C189.129 18.1022 188.814 18.4303 188.568 18.8496C188.331 19.2598 188.158 19.7337 188.049 20.2715C187.939 20.8001 187.885 21.3652 187.885 21.9668Z" fill="white"/>
</svg>
